# xmcd CD database file
#
# Track frame offsets:
#	150
#	1637
#	20877
#	36225
#	48937
#	67262
#	72937
#	93050
#	104275
#	123987
#	142062
#
# Disc length: 2138 seconds
#
# Revision: 0
# Processed by: cddbd v1.5.1PL0 Copyright (c) Steve Scherf et al.
# Submitted via: CDex 1.51
#
DISCID=9408580b
DTITLE=pre-school - POP-CULT DO-DO
DYEAR=1996
DGENRE=Rock
TTITLE0=The Real Introduction to the World of POP CULTURE
TTITLE1=POPSTAR
TTITLE2=PASTIME
TTITLE3=THAT'S THE WAY MY DREAMS ALWAYS GO
TTITLE4=HOLIDAY LOVERS
TTITLE5=NO.5
TTITLE6=HOLIDAY LOVERS
TTITLE7=WHEN A PIG FLIES
TTITLE8=NEFARIOUS
TTITLE9=MR.SULTAN BOY
TTITLE10=TINY RED CAR
EXTD=YEAR: 1996.11/21
EXTT0=
EXTT1=
EXTT2=
EXTT3=
EXTT4=
EXTT5=
EXTT6=
EXTT7=
EXTT8=
EXTT9=
EXTT10=
PLAYORDER=
